<?xml version="1.0" encoding="utf-8"?>
<!-- Generator: Adobe Illustrator 27.8.1, SVG Export Plug-In . SVG Version: 6.00 Build 0)  -->
<svg version="1.1" id="Layer_1" xmlns="http://www.w3.org/2000/svg" xmlns:xlink="http://www.w3.org/1999/xlink" x="0px" y="0px"
	 viewBox="0 0 146.5 43" style="enable-background:new 0 0 146.5 43;" xml:space="preserve">
<style type="text/css">
	.st0{display:none;}
	.st1{fill:#5044E5;}
</style>
<path class="st0" d="M62.6,34.4c-1.7,0-3.4-0.3-4.9-1c-1.5-0.6-2.8-1.5-3.9-2.6c-1.1-1.1-2-2.4-2.7-3.9c-0.6-1.5-0.9-3.1-0.9-4.9
	s0.3-3.3,0.9-4.8c0.6-1.5,1.5-2.8,2.6-3.9c1.1-1.1,2.4-2,3.9-2.6c1.5-0.6,3.1-1,4.9-1c1.7,0,3.4,0.3,4.9,1c1.5,0.6,2.8,1.5,3.9,2.6
	c1.1,1.1,2,2.4,2.6,3.9c0.6,1.5,1,3.1,1,4.8s-0.3,3.3-1,4.8c-0.6,1.5-1.5,2.8-2.6,3.9c-1.1,1.1-2.4,2-3.9,2.6
	C65.9,34.1,64.3,34.4,62.6,34.4z M73.3,35.8L62.4,24.8l2.8-2.8l11,11L73.3,35.8z M62.5,30.1c1.5,0,2.8-0.3,4-1
	c1.2-0.7,2.1-1.6,2.7-2.8c0.7-1.2,1-2.6,1-4.2c0-1.2-0.2-2.3-0.6-3.2c-0.4-1-0.9-1.8-1.6-2.5c-0.7-0.7-1.5-1.3-2.4-1.7
	c-0.9-0.4-2-0.6-3.1-0.6c-1.5,0-2.8,0.3-4,1c-1.1,0.7-2,1.6-2.7,2.8c-0.6,1.2-1,2.6-1,4.2c0,1.2,0.2,2.3,0.5,3.3
	c0.4,1,0.9,1.8,1.6,2.6c0.7,0.7,1.5,1.2,2.4,1.6C60.3,29.9,61.4,30.1,62.5,30.1z M85.8,34.3c-1.5,0-2.7-0.3-3.9-0.9
	c-1.1-0.6-2-1.5-2.6-2.6c-0.6-1.1-1-2.3-1-3.8v-9.5h4.5V27c0,0.7,0.1,1.3,0.3,1.8c0.2,0.5,0.6,0.8,1,1.1c0.5,0.2,1,0.4,1.6,0.4
	c0.9,0,1.7-0.3,2.2-0.9c0.5-0.6,0.8-1.4,0.8-2.4v-9.4h4.5v9.5c0,1.5-0.3,2.7-1,3.8c-0.6,1.1-1.5,1.9-2.6,2.6
	C88.5,34,87.2,34.3,85.8,34.3z M96.7,34V17.6h4.5V34H96.7z M99,14.9c-0.7,0-1.3-0.2-1.8-0.7c-0.5-0.5-0.7-1.1-0.7-1.8
	c0-0.7,0.2-1.3,0.7-1.8c0.5-0.5,1.1-0.7,1.8-0.7c0.7,0,1.3,0.2,1.8,0.7c0.5,0.5,0.7,1.1,0.7,1.8c0,0.7-0.2,1.3-0.7,1.8
	C100.3,14.7,99.7,14.9,99,14.9z M112.9,34.3c-1.7,0-3.2-0.4-4.5-1.1c-1.3-0.7-2.4-1.8-3.2-3.1c-0.8-1.3-1.2-2.7-1.2-4.4
	c0-1.6,0.4-3.1,1.2-4.4c0.8-1.3,1.8-2.3,3.2-3.1c1.4-0.8,2.9-1.2,4.5-1.2c1.3,0,2.5,0.2,3.6,0.7s2,1.2,2.8,2l-2.9,2.9
	c-0.4-0.5-1-0.8-1.6-1.1c-0.6-0.2-1.2-0.4-2-0.4c-0.8,0-1.6,0.2-2.2,0.6c-0.6,0.4-1.1,0.9-1.5,1.5c-0.4,0.6-0.5,1.4-0.5,2.3
	c0,0.9,0.2,1.6,0.5,2.3c0.4,0.7,0.9,1.2,1.5,1.6c0.7,0.4,1.4,0.5,2.2,0.5c0.7,0,1.4-0.1,2-0.4c0.6-0.3,1.1-0.7,1.6-1.2l2.9,2.9
	c-0.8,0.9-1.8,1.6-2.9,2.1C115.4,34.1,114.2,34.3,112.9,34.3z M132.4,34l-6.4-8.5l6.3-8h5.1l-7.4,9l0.2-2.2l7.6,9.6H132.4z
	 M121.9,34V9.4h4.5V34H121.9z M149,34.3c-1.2,0-2.2-0.2-3.2-0.7s-1.7-1.2-2.3-2s-0.9-1.8-0.9-2.9v-5.8c0-1.1,0.4-2,0.9-2.9
	c0.6-0.9,1.4-1.5,2.3-2s2-0.7,3.2-0.7c1.5,0,2.9,0.4,4.1,1.1c1.2,0.7,2.1,1.8,2.8,3.1c0.7,1.3,1.1,2.8,1.1,4.4
	c0,1.6-0.4,3.1-1.1,4.4c-0.7,1.3-1.6,2.3-2.8,3.1C151.8,34,150.5,34.3,149,34.3z M139.8,34V9.4h4.5v12.2l-0.7,3.9l0.7,4V34H139.8z
	 M148.2,30.2c0.8,0,1.5-0.2,2.1-0.5c0.6-0.4,1.1-0.9,1.5-1.6c0.4-0.7,0.5-1.5,0.5-2.3c0-0.9-0.2-1.6-0.5-2.3
	c-0.3-0.7-0.8-1.2-1.5-1.6c-0.6-0.4-1.4-0.6-2.2-0.6c-0.8,0-1.5,0.2-2.2,0.6c-0.6,0.4-1.1,0.9-1.5,1.6c-0.3,0.7-0.5,1.4-0.5,2.3
	c0,0.9,0.2,1.7,0.5,2.3c0.4,0.7,0.9,1.2,1.5,1.6C146.7,30,147.4,30.2,148.2,30.2z M159.8,34V9.4h4.5V34H159.8z M176,34.3
	c-1.7,0-3.2-0.4-4.5-1.1c-1.3-0.8-2.4-1.8-3.2-3.1c-0.8-1.3-1.2-2.8-1.2-4.4c0-1.6,0.4-3,1.2-4.3c0.8-1.3,1.8-2.3,3.2-3.1
	c1.3-0.8,2.8-1.2,4.5-1.2c1.7,0,3.2,0.4,4.5,1.2c1.3,0.7,2.4,1.8,3.2,3.1c0.8,1.3,1.2,2.7,1.2,4.3c0,1.6-0.4,3.1-1.2,4.4
	c-0.8,1.3-1.8,2.3-3.2,3.1C179.1,34,177.6,34.3,176,34.3z M175.9,30.2c0.8,0,1.6-0.2,2.2-0.5c0.7-0.4,1.2-0.9,1.5-1.6
	c0.4-0.7,0.5-1.5,0.5-2.3c0-0.9-0.2-1.6-0.5-2.3c-0.4-0.7-0.9-1.2-1.5-1.5c-0.6-0.4-1.4-0.6-2.2-0.6c-0.8,0-1.5,0.2-2.2,0.6
	c-0.6,0.4-1.1,0.9-1.5,1.5c-0.4,0.7-0.5,1.4-0.5,2.3c0,0.9,0.2,1.6,0.5,2.3c0.4,0.7,0.9,1.2,1.5,1.6C174.4,30,175.1,30.2,175.9,30.2
	z M194.5,41.3c-1.7,0-3.3-0.3-4.6-1c-1.3-0.6-2.4-1.5-3.2-2.6l2.8-2.8c0.6,0.7,1.3,1.3,2.1,1.7c0.8,0.4,1.7,0.6,2.9,0.6
	c1.4,0,2.5-0.4,3.3-1.1c0.8-0.7,1.2-1.7,1.2-2.9v-4.1l0.7-3.6l-0.7-3.6v-4.3h4.4v15.6c0,1.6-0.4,3-1.2,4.2c-0.7,1.2-1.8,2.2-3.1,2.9
	C197.7,40.9,196.2,41.3,194.5,41.3z M194.3,33.6c-1.5,0-2.8-0.4-4-1.1c-1.2-0.7-2.1-1.7-2.8-3c-0.7-1.2-1-2.6-1-4.2s0.3-2.9,1-4.1
	c0.7-1.2,1.6-2.2,2.8-2.9c1.2-0.7,2.5-1.1,4-1.1c1.2,0,2.3,0.2,3.2,0.7c1,0.5,1.7,1.1,2.2,2c0.5,0.8,0.8,1.8,0.9,2.9V28
	c0,1.1-0.4,2.1-0.9,2.9c-0.5,0.8-1.3,1.5-2.2,2C196.5,33.3,195.5,33.6,194.3,33.6z M195.1,29.5c0.8,0,1.5-0.2,2.1-0.5
	c0.6-0.4,1.1-0.9,1.4-1.5c0.3-0.6,0.5-1.3,0.5-2.1c0-0.8-0.2-1.5-0.5-2.1c-0.3-0.6-0.8-1.1-1.4-1.4c-0.6-0.4-1.3-0.5-2.1-0.5
	c-0.8,0-1.5,0.2-2.1,0.5c-0.6,0.3-1.1,0.8-1.4,1.5c-0.3,0.6-0.5,1.3-0.5,2.1c0,0.8,0.2,1.5,0.5,2.1c0.3,0.6,0.8,1.1,1.4,1.5
	S194.3,29.5,195.1,29.5z"/>
<path class="st1" d="M20,0.2c11,0,20,9,20,20v14c0,1.6-0.6,3.1-1.8,4.2c-1.1,1.1-2.7,1.8-4.2,1.8H21v-8.8c0-2,0.1-4.1,1.2-5.8
	c0.8-1.2,1.8-2.3,2.9-3.1c1.2-0.8,2.5-1.3,4-1.6l0.4-0.1c0.2-0.1,0.3-0.2,0.4-0.3c0.1-0.1,0.1-0.3,0.1-0.5c0-0.2-0.1-0.3-0.1-0.5
	c-0.1-0.1-0.2-0.2-0.4-0.3l-0.4-0.1c-2.1-0.3-4-1.3-5.5-2.8c-1.5-1.5-2.5-3.4-2.8-5.5l-0.1-0.4c-0.1-0.2-0.2-0.3-0.3-0.4
	c-0.1-0.1-0.3-0.1-0.5-0.1c-0.2,0-0.3,0.1-0.5,0.1c-0.1,0.1-0.2,0.2-0.3,0.4l-0.1,0.4c-0.2,1.4-0.8,2.8-1.6,4
	c-0.8,1.2-1.8,2.2-3.1,2.9c-1.7,1.1-3.8,1.2-5.8,1.2H0C0.5,8.6,9.3,0.2,20,0.2z"/>
<path class="st1" d="M0,21.2h8.8c2,0,4.1,0.1,5.8,1.2c1.3,0.8,2.5,1.9,3.3,3.3c1.1,1.7,1.2,3.8,1.2,5.8v8.8H6
	c-1.6,0-3.1-0.6-4.2-1.8C0.6,37.3,0,35.8,0,34.2V21.2z M40,2.2c0,0.5-0.2,1-0.6,1.4C39,4,38.5,4.2,38,4.2S37,4,36.6,3.6
	C36.2,3.3,36,2.7,36,2.2s0.2-1,0.6-1.4C37,0.4,37.5,0.2,38,0.2s1,0.2,1.4,0.6C39.8,1.2,40,1.7,40,2.2z"/>
<g>
	<path d="M69.8,13.4c0.7,1,1.1,2.2,1.1,3.5c0,1.4-0.4,2.5-1.1,3.4c-0.4,0.5-1,0.9-1.8,1.3c1.2,0.4,2.1,1.1,2.7,2
		c0.6,0.9,0.9,2.1,0.9,3.4c0,1.4-0.3,2.6-1,3.7c-0.4,0.7-1,1.3-1.6,1.8c-0.7,0.6-1.6,0.9-2.6,1.2c-1,0.2-2.1,0.3-3.3,0.3H52.7V10.9
		h11.1C66.6,11,68.6,11.8,69.8,13.4z M57.3,14.9V20h5.6c1,0,1.8-0.2,2.4-0.6c0.6-0.4,0.9-1.1,0.9-2c0-1.1-0.4-1.8-1.2-2.1
		c-0.7-0.2-1.6-0.4-2.7-0.4H57.3z M57.3,23.8V30h5.6c1,0,1.8-0.1,2.3-0.4c1-0.5,1.5-1.5,1.5-2.9c0-1.2-0.5-2-1.5-2.5
		c-0.5-0.2-1.3-0.4-2.3-0.4H57.3z"/>
	<path d="M79.1,34h-4.5V10.9h4.5V34z"/>
	<path d="M96.9,31.9c-1.4,1.8-3.6,2.7-6.6,2.7c-2.9,0-5.1-0.9-6.6-2.7c-1.4-1.8-2.2-3.9-2.2-6.4c0-2.5,0.7-4.6,2.2-6.4
		c1.4-1.8,3.6-2.7,6.6-2.7c2.9,0,5.1,0.9,6.6,2.7c1.4,1.8,2.2,3.9,2.2,6.4C99.1,28,98.3,30.1,96.9,31.9z M93.3,29.4
		c0.7-0.9,1-2.2,1-4c0-1.7-0.3-3-1-3.9c-0.7-0.9-1.7-1.4-3-1.4c-1.3,0-2.3,0.5-3,1.4c-0.7,0.9-1.1,2.2-1.1,3.9c0,1.7,0.4,3,1.1,4
		c0.7,0.9,1.7,1.4,3,1.4C91.6,30.8,92.6,30.4,93.3,29.4z"/>
	<path d="M109.9,16.9c1.1,0.4,2,1.3,2.6,2.5v-2.5h4.3v16.2c0,2.2-0.4,3.9-1.1,5c-1.3,1.9-3.7,2.9-7.3,2.9c-2.2,0-4-0.4-5.3-1.3
		c-1.4-0.9-2.1-2.1-2.3-3.8h4.9c0.1,0.5,0.3,0.9,0.6,1.1c0.5,0.4,1.3,0.6,2.4,0.6c1.6,0,2.7-0.5,3.2-1.6c0.4-0.7,0.5-1.8,0.5-3.5
		v-1.1c-0.4,0.7-0.9,1.3-1.4,1.6c-0.9,0.7-2,1-3.5,1c-2.2,0-3.9-0.8-5.2-2.3c-1.3-1.5-2-3.6-2-6.2c0-2.5,0.6-4.7,1.9-6.4
		c1.3-1.7,3-2.6,5.4-2.6C108.5,16.5,109.2,16.7,109.9,16.9z M111.4,29.2c0.7-0.8,1.1-2,1.1-3.8c0-1.6-0.3-2.8-1-3.7
		c-0.7-0.8-1.6-1.3-2.7-1.3c-1.6,0-2.6,0.7-3.2,2.2c-0.3,0.8-0.5,1.7-0.5,2.9c0,1,0.2,1.9,0.5,2.6c0.6,1.4,1.7,2.2,3.2,2.2
		C109.8,30.3,110.7,29.9,111.4,29.2z"/>
	<path d="M124.8,34h-4.5V10.9h4.5V34z"/>
	<path d="M129,37.3l0.6,0c0.4,0,0.9,0,1.3,0c0.4-0.1,0.7-0.2,1-0.4c0.3-0.2,0.5-0.5,0.7-1.1c0.2-0.6,0.3-0.9,0.3-1l-6.3-17.8h5
		l3.7,12.6l3.5-12.6h4.7l-5.8,16.8c-1.1,3.2-2,5.2-2.7,6c-0.7,0.8-2,1.2-3.9,1.2c-0.4,0-0.7,0-1,0c-0.2,0-0.6,0-1.1-0.1V37.3z"/>
</g>
</svg>
